<?xml version="1.0" encoding="UTF-8"?>
<svg shape-rendering="geometricPrecision" text-rendering="geometricPrecision" viewBox="0 0 60 60" xmlns="http://www.w3.org/2000/svg">
<style><![CDATA[#emg8VbSy3h917_to {animation: emg8VbSy3h917_to__to 3000ms linear infinite normal forwards}@keyframes emg8VbSy3h917_to__to { 0% {transform: translate(30px,1px)} 13.333333% {transform: translate(30px,6px)} 20% {transform: translate(30px,16px)} 30% {transform: translate(30px,26px)} 40% {transform: translate(30px,36px)} 50% {transform: translate(30px,46px)} 56.666667% {transform: translate(30px,56px)} 60% {transform: translate(30px,58px)} 63.333333% {transform: translate(30px,59px)} 100% {transform: translate(30px,59px)}}]]></style>
<rect width="60" height="60" rx="0" ry="0" fill="#7f6e5d"/>
<g fill="#b29a84">
<path d="M20,2L2,2v18c0,.552.448,1,1,1s1-.448,1-1L4,4h16c.552,0,1-.448,1-1s-.448-1-1-1Z"/>
<path d="M57,40c-.552,0-1,.448-1,1v15h-15c-.552,0-1,.448-1,1s.448,1,1,1h17v-17c0-.552-.448-1-1-1Z"/>
<path d="M41,2c-.552,0-1,.448-1,1s.448,1,1,1h15v16c0,.552.448,1,1,1s1-.448,1-1v-18h-17Z"/>
<path d="M20,56h-16v-15c0-.552-.448-1-1-1s-1,.448-1,1v17h18c.552,0,1-.448,1-1s-.448-1-1-1Z"/>
</g>
<g fill="#b29a84">
<path d="M29.733,28.222c-.508.211-.749.795-.54,1.305.021.052,2.14,5.439,1.55,22.35-.019.552.413,1.015.965,1.034.012,0,.023,0,.035,0c.536,0,.98-.425.999-.965.61-17.503-1.61-22.969-1.705-23.193-.214-.507-.793-.743-1.304-.531Z"/>
<path d="M50.51,20.515C47.036,12.305,39.032,7,30.118,7c-2.942,0-5.811.575-8.525,1.708-1.501.626-2.921,1.371-4.219,2.215-.463.301-.595.92-.293,1.383.301.463.921.595,1.383.293c1.197-.778,2.508-1.466,3.899-2.046C24.833,9.523,27.441,9,30.118,9c8.109,0,15.391,4.826,18.55,12.294c1.26,2.978,1.981,5.929,2.337,9.571.05.517.485.903.994.903.032,0,.065-.001.098-.005.55-.054.952-.542.898-1.092-.376-3.852-1.143-6.984-2.485-10.156Z"/>
<path d="M9.479,29.028c.15-5.575,2.073-10.222,5.715-13.811.394-.388.398-1.021.011-1.414-.388-.394-1.021-.399-1.414-.011-3.967,3.909-6.149,9.159-6.311,15.182-.092,3.412.451,7.121,1.614,11.025.129.434.527.715.958.715.095,0,.191-.014.286-.042.529-.158.831-.715.673-1.244-1.102-3.701-1.617-7.2-1.532-10.4Z"/>
<path d="M46.715,24.25c-2.232-6.581-9.395-12.125-15.966-12.36-2.519-.09-4.964.354-7.279,1.321-6.393,2.667-10.563,8.861-10.622,15.78v0v0v0v0c-.014,1.633.206,3.262.653,4.842.234.825.473,1.703.6,2.57.275,1.877.577,5.382.45,11.422-.011.552.427,1.009.979,1.021.007,0,.014,0,.021,0c.542,0,.988-.434,1-.979.129-6.178-.186-9.802-.472-11.753-.144-.986-.402-1.937-.655-2.826-.396-1.396-.59-2.836-.577-4.279v0v0c.052-6.116,3.738-11.593,9.392-13.951c2.046-.854,4.213-1.251,6.437-1.167c5.712.204,12.189,5.244,14.144,11.004.455,1.342.796,2.737,1.042,4.266.613,3.813.631,8.411.462,14.593-.015.552.42,1.012.972,1.027.009,0,.019,0,.028,0c.54,0,.984-.43.999-.973.172-6.298.151-10.998-.486-14.965-.262-1.642-.629-3.143-1.122-4.593Z"/>
<path d="M24.186,20.625c.452-.317.561-.941.244-1.393-.317-.451-.941-.561-1.393-.244-3.13,2.197-4.993,5.835-5.111,9.982c0,.001,0,.002,0,.003-.041,1.435.131,2.873.509,4.267c0,.003.026.096.027.099.854,3.129,1.176,9.135.905,16.911-.019.552.413,1.015.965,1.034.012,0,.023,0,.035,0c.536,0,.98-.425.999-.965.282-8.087-.055-14.141-.999-17.596-.329-1.212-.478-2.455-.442-3.694c0,0,0-.001,0-.002.099-3.508,1.652-6.571,4.261-8.402Z"/>
<path d="M42.875,28.807c-.309-1.602-.751-3.07-1.352-4.49-1.943-4.592-6.419-7.559-11.405-7.559-.896,0-1.79.097-2.656.288-.54.119-.88.652-.762,1.191.118.54.651.879,1.191.762.726-.16,1.475-.241,2.226-.241c4.181,0,7.935,2.488,9.563,6.338.545,1.29.948,2.628,1.23,4.092c0,.001,0,.001,0,.002.763,3.96.741,8.945.403,18.619-.019.552.413,1.015.965,1.034.012,0,.023,0,.035,0c.536,0,.98-.425.999-.965.343-9.832.361-14.919-.439-19.07.002.001.002,0,.002-.001Z"/>
<path d="M37.544,45.219c-.002,0-.005,0-.007,0-.549,0-.996.443-1,.993-.004.642-.013,1.304-.026,1.987-.01.552.429,1.008.981,1.019.006,0,.013,0,.02,0c.543,0,.989-.435,1-.981.013-.69.022-1.361.026-2.011.003-.553-.442-1.003-.994-1.007Z"/>
<path d="M37.506,43.153c.008,0,.016,0,.023,0c.552-.012.989-.47.977-1.022-.128-5.617-.64-10.246-1.479-13.389-.321-1.201-.606-1.875-.747-2.207-1.05-2.481-3.469-4.084-6.163-4.084-.888,0-1.755.174-2.577.517-2.426,1.012-4.04,3.369-4.112,6.005-.024.884.125,1.752.426,2.528.07.216,1.713,5.455,1.199,20.179-.019.552.413,1.015.965,1.034.012,0,.023,0,.035,0c.536,0,.98-.425.999-.965.517-14.818-1.109-20.291-1.314-20.917-.224-.579-.329-1.186-.312-1.804.051-1.851,1.182-3.505,2.883-4.214.577-.241,1.185-.363,1.807-.363c1.889,0,3.585,1.124,4.324,2.872.119.282.368.869.652,1.936.557,2.085,1.255,6.02,1.413,12.918.015.544.46.976,1.001.976Z"/>
</g>
<g transform="translate(30,1)">
<rect transform="translate(-30,-1)" width="60" height="2" rx="0" ry="0" fill="#ff5364"/>
</g>
</svg>
